<svg width="24" height="24" viewBox="0 0 24 24" fill="none" xmlns="http://www.w3.org/2000/svg">
<circle cx="12" cy="12" r="10.5" stroke="white"/>
<path d="M6.744 9.364H17.304V10.288H6.744V9.364ZM12.588 9.736C12.86 10.704 13.216 11.608 13.656 12.448C14.104 13.28 14.648 14.008 15.288 14.632C15.936 15.256 16.672 15.744 17.496 16.096C17.424 16.16 17.344 16.24 17.256 16.336C17.176 16.44 17.096 16.544 17.016 16.648C16.936 16.752 16.872 16.848 16.824 16.936C15.96 16.52 15.196 15.972 14.532 15.292C13.876 14.612 13.316 13.82 12.852 12.916C12.388 12.012 12.004 11.024 11.7 9.952L12.588 9.736ZM11.532 5.932H12.504C12.504 6.452 12.488 7.032 12.456 7.672C12.432 8.304 12.372 8.964 12.276 9.652C12.18 10.332 12.02 11.02 11.796 11.716C11.58 12.404 11.276 13.072 10.884 13.72C10.5 14.36 10.008 14.956 9.408 15.508C8.808 16.06 8.072 16.536 7.2 16.936C7.128 16.816 7.024 16.684 6.888 16.54C6.76 16.404 6.636 16.288 6.516 16.192C7.364 15.824 8.076 15.384 8.652 14.872C9.236 14.36 9.712 13.8 10.08 13.192C10.448 12.584 10.732 11.956 10.932 11.308C11.132 10.66 11.272 10.016 11.352 9.376C11.432 8.728 11.48 8.112 11.496 7.528C11.52 6.944 11.532 6.412 11.532 5.932Z" fill="white"/>
</svg>
